<?xml version="1.0"?>
<svg xmlns="http://www.w3.org/2000/svg" id="Layer_3" enable-background="new 0 0 64 64" height="512px" viewBox="0 0 64 64" width="512px" class=""><g><path d="m17 2h30v4h-30z" fill="#f5b953" data-original="#F5B953" class="" data-old_color="#f5b953" style="fill:#646463"/><path d="m46 6 .028.042c1.294 1.941 2.083 4.175 2.294 6.498l.9 9.897c.518 5.706.778 11.432.778 17.161 0 7.567-1.009 15.101-3 22.402h-7l-5.717-40.02c-.162-1.136-1.135-1.98-2.283-1.98-1.148 0-2.121.844-2.283 1.98l-5.717 40.02h-7c-1.991-7.301-3-14.834-3-22.402 0-5.729.26-11.455.778-17.161l.9-9.897c.211-2.323 1-4.557 2.294-6.498l.028-.042" fill="#4472b2" data-original="#4472B2" class="active-path" data-old_color="#4472b2" style="fill:#7C5215"/><path d="m25.098 26.77c-1.916-1.094-3.098-3.132-3.098-5.338 0-2.647-1.694-4.996-4.204-5.833l-1.796-.599h-.545l-.676 7.437c-.519 5.706-.779 11.432-.779 17.161 0 1.135.03 2.269.076 3.402h1.57c2.056 0 3.935-1.161 4.854-3s2.798-3 4.854-3h2.217l1.164-8.151z" fill="#f5b953" data-original="#F5B953" class="" data-old_color="#f5b953" style="fill:#646463"/><path d="m46.204 15.599c-2.51.836-4.204 3.186-4.204 5.833 0 2.206-1.182 4.244-3.098 5.339l-3.638 2.079 1.165 8.15h2.217c2.056 0 3.935 1.161 4.854 3s2.798 3 4.854 3h1.57c.046-1.133.076-2.267.076-3.402 0-5.729-.26-11.455-.778-17.161l-.677-7.437h-.545z" fill="#f5b953" data-original="#F5B953" class="" data-old_color="#f5b953" style="fill:#646463"/><path d="m47 7h-30c-.553 0-1-.447-1-1v-4c0-.553.447-1 1-1h30c.553 0 1 .447 1 1v4c0 .553-.447 1-1 1zm-29-2h28v-2h-28z" data-original="#000000" class="" style="fill:#000000"/><path d="m47 63h-7c-.498 0-.92-.366-.99-.858l-5.717-40.021c-.092-.639-.647-1.121-1.293-1.121s-1.201.482-1.293 1.122l-5.717 40.02c-.07.492-.492.858-.99.858h-7c-.451 0-.846-.302-.965-.737-2.014-7.384-3.035-15.01-3.035-22.664 0-5.735.264-11.54.782-17.252l.899-9.897c.227-2.481 1.076-4.889 2.458-6.962l.861.512.829.56c-1.223 1.834-1.959 3.92-2.155 6.071l-.899 9.897c-.514 5.652-.775 11.396-.775 17.071 0 7.223.931 14.418 2.768 21.401h5.365l5.594-39.162c.232-1.618 1.639-2.838 3.273-2.838s3.041 1.22 3.273 2.837l5.594 39.163h5.365c1.837-6.983 2.768-14.179 2.768-21.401 0-5.675-.261-11.419-.774-17.07l-.899-9.897c-.196-2.151-.933-4.237-2.13-6.034l1.633-1.156.028.042c1.385 2.078 2.234 4.485 2.461 6.967l.899 9.897c.518 5.711.782 11.515.782 17.251 0 7.654-1.021 15.28-3.035 22.664-.119.435-.514.737-.965.737z" data-original="#000000" class="" style="fill:#000000"/><path d="m28.504 29.868-3.902-2.229c-2.222-1.27-3.602-3.649-3.602-6.207 0-2.22-1.415-4.183-3.521-4.885l-1.796-.599.633-1.896 1.796.599c2.924.973 4.888 3.699 4.888 6.781 0 1.843.994 3.556 2.594 4.471l3.902 2.229z" data-original="#000000" class="" style="fill:#000000"/><path d="m15.646 44h-1.646v-2h1.646c1.688 0 3.206-.938 3.96-2.447 1.094-2.192 3.297-3.553 5.748-3.553h2.646v2h-2.646c-1.688 0-3.206.938-3.96 2.447-1.094 2.192-3.297 3.553-5.748 3.553z" data-original="#000000" class="" style="fill:#000000"/><path d="m35.496 29.868-.992-1.736 3.902-2.229c1.6-.915 2.594-2.628 2.594-4.471 0-3.082 1.964-5.808 4.888-6.781l1.796-.599.633 1.896-1.796.599c-2.106.702-3.521 2.665-3.521 4.885 0 2.559-1.38 4.938-3.602 6.207z" data-original="#000000" class="" style="fill:#000000"/><path d="m50 44h-1.646c-2.451 0-4.654-1.361-5.749-3.553-.753-1.509-2.271-2.447-3.959-2.447h-2.646v-2h2.646c2.451 0 4.654 1.361 5.749 3.553.754 1.51 2.271 2.447 3.96 2.447h1.645z" data-original="#000000" class="" style="fill:#000000"/><path d="m32 21c-2.757 0-5-2.691-5-6h2c0 2.206 1.346 4 3 4s3-1.794 3-4h2c0 3.309-2.243 6-5 6z" data-original="#000000" class="" style="fill:#000000"/></g> </svg>
