<?xml version="1.0"?>
<svg xmlns="http://www.w3.org/2000/svg" height="512px" viewBox="0 0 64 64" width="512px" class=""><g><g id="Filled_outline" data-name="Filled outline"><path d="m54 46-13-4-13-13v-14h-20v39h51c0-3.594-.906-7.031-5-8z" fill="#7d8d9c" data-original="#7D8D9C" class="" data-old_color="#7d8d9c" style="fill:#7C5215"/><path d="m59 61h-23l-4-2h-6l-3 2h-15v-7h51z" fill="#ceac9a" data-original="#CEAC9A" class="active-path" data-old_color="#ceac9a" style="fill:#7C5215"/><g fill="#66342e"><path d="m11 58h2v3h-2z" data-original="#000000" class=""/><path d="m15 58h2v3h-2z" data-original="#000000" class=""/><path d="m19 58h2v3h-2z" data-original="#000000" class=""/><path d="m38 58h2v3h-2z" data-original="#000000" class=""/><path d="m42 58h2v3h-2z" data-original="#000000" class=""/><path d="m46 58h2v3h-2z" data-original="#000000" class=""/><path d="m50 58h2v3h-2z" data-original="#000000" class=""/><path d="m54 58h2v3h-2z" data-original="#000000" class=""/></g><path d="m6 3h24v12h-24z" fill="#5a6470" data-original="#5A6470" class="" data-old_color="#5a6470" style="fill:#7C5215"/><path d="m8 40v14h14a14 14 0 0 0 -14-14z" fill="#394d5c" data-original="#394D5C" class="" data-old_color="#394d5c" style="fill:#646463"/><path d="m54 46-13-4s-13 1-13 12h31c0-3.594-.906-7.031-5-8z" fill="#394d5c" data-original="#394D5C" class="" data-old_color="#394d5c" style="fill:#646463"/><path d="m17 51h-5a1 1 0 0 1 -1-1v-6h2v5h4z" fill="#f4f4e6" data-original="#F4F4E6"/><path d="m54.031 54.242-.867-3.467-8.48-2.827.633-1.9 9 3a1 1 0 0 1 .653.706l1 4z" fill="#f4f4e6" data-original="#F4F4E6"/><path d="m28 29v-10h-6v12l10 10 4-4z" fill="#5a6470" data-original="#5A6470" class="" data-old_color="#5a6470" style="fill:#7C5215"/><path d="m11 12h-2v-5a1 1 0 0 1 1-1h5v2h-4z" fill="#f4f4e6" data-original="#F4F4E6"/><path d="m17 6h2v2h-2z" fill="#f4f4e6" data-original="#F4F4E6"/><path d="m25 23h3v2h-3z" fill="#143441" data-original="#143441" class="" style="fill:#143441" data-old_color="#143441"/><path d="m27.586 31h2.828v2h-2.828z" fill="#143441" transform="matrix(.707 -.707 .707 .707 -14.133 29.879)" data-original="#143441" class="" style="fill:#143441" data-old_color="#143441"/><path d="m30.586 34h2.828v2h-2.828z" fill="#143441" transform="matrix(.707 -.707 .707 .707 -15.376 32.879)" data-original="#143441" class="" style="fill:#143441" data-old_color="#143441"/><path d="m25 28h3v2h-3z" fill="#143441" data-original="#143441" class="" style="fill:#143441" data-old_color="#143441"/><path d="m8 15h10a0 0 0 0 1 0 0v2a8 8 0 0 1 -8 8h-2a0 0 0 0 1 0 0v-10a0 0 0 0 1 0 0z" fill="#394d5c" data-original="#394D5C" class="" data-old_color="#394d5c" style="fill:#646463"/><path d="m11 30h2v2h-2z" fill="#394d5c" data-original="#394D5C" class="" data-old_color="#394d5c" style="fill:#646463"/><path d="m11 34h2v2h-2z" fill="#394d5c" data-original="#394D5C" class="" data-old_color="#394d5c" style="fill:#646463"/><path d="m54.264 45.035-12.733-3.918-12.531-12.531v-12.586h1a1 1 0 0 0 1-1v-12a1 1 0 0 0 -1-1h-24a1 1 0 0 0 -1 1v12a1 1 0 0 0 1 1h1v45a1 1 0 0 0 1 1h15a1.006 1.006 0 0 0 .555-.168l2.745-1.832h5.461l3.789 1.9a1 1 0 0 0 .45.1h23a1 1 0 0 0 1-1v-7c0-1.878 0-7.586-5.736-8.965zm-15.347-3.7c-3.706.8-11.307 3.439-11.88 11.669h-4.088a15 15 0 0 0 -13.949-13.953v-13.051h1a9.01 9.01 0 0 0 9-9v-1h8v2h-5a1 1 0 0 0 -1 1v12a1 1 0 0 0 .293.707l10 10a1 1 0 0 0 1.414 0l3.293-3.293zm-17.955 11.665h-11.962v-11.962a13.021 13.021 0 0 1 11.962 11.962zm-11.962-29v-8h8v1a7.009 7.009 0 0 1 -7 7zm21 8.414 1.586 1.586-1.293 1.293 1.414 1.414 1.293-1.293 1.586 1.586-2.586 2.586-9-9v-10.586h4v3h-2v2h2v3h-2v2h2.586l1 1-1.293 1.293 1.414 1.414zm-23-18.414v-10h22v10zm51 46h-2v-2h-2v2h-2v-2h-2v2h-2v-2h-2v2h-2v-2h-2v2h-2v-2h-2v2h-1.764l-3.789-1.9a1 1 0 0 0 -.447-.1h-6a1.006 1.006 0 0 0 -.555.168l-2.745 1.832h-1.7v-2h-2v2h-2v-2h-2v2h-2v-2h-2v2h-2v-5h49zm-2.22-7-.81-3.242a.994.994 0 0 0 -.654-.706l-9-3-.632 1.9 8.479 2.827.557 2.221h-24.676c.708-8.49 10.359-9.829 11.852-9.986l12.81 3.942.064.017c2.681.634 4 2.509 4.2 6.027z" data-original="#000000" class=""/><path d="m13 44h-2v6a1 1 0 0 0 1 1h5v-2h-4z" data-original="#000000" class=""/><path d="m9 7v5h2v-4h4v-2h-5a1 1 0 0 0 -1 1z" data-original="#000000" class=""/><path d="m17 6h2v2h-2z" data-original="#000000" class=""/><path d="m11 30h2v2h-2z" data-original="#000000" class=""/><path d="m11 34h2v2h-2z" data-original="#000000" class=""/></g></g> </svg>
