<?xml version="1.0"?>
<svg xmlns="http://www.w3.org/2000/svg" xmlns:xlink="http://www.w3.org/1999/xlink" version="1.1" id="Capa_1" x="0px" y="0px" viewBox="0 0 512 512" style="enable-background:new 0 0 512 512;" xml:space="preserve" width="512px" height="512px" class=""><g><path style="fill:#7C5215" d="M248.764,147.274c4.612,2.251,9.927,2.251,14.538,0c42.243-20.619,44.898-59.902,44.898-59.902  H203.867C203.867,87.372,206.522,126.655,248.764,147.274z" data-original="#707487" class="" data-old_color="#707487"/><path style="fill:#7C5215" d="M224.443,87.372h-20.576c0,0,2.655,39.284,44.898,59.902c4.612,2.251,9.927,2.251,14.538,0  c1.032-0.504,2.034-1.022,3.019-1.547C226.977,124.756,224.443,87.372,224.443,87.372z" data-original="#5E6377" class="" data-old_color="#5E6377"/><path style="fill:#646463" d="M80.643,265.505c6.182-31.051,24.14-48.837,24.14-48.837L52.331,149.15  c-32.313,31.502-42.018,72.587-44.743,99.101c-0.524,5.095,2.767,9.801,7.741,11.027l54.087,13.338  C74.497,273.869,79.62,270.639,80.643,265.505z" data-original="#D8DCE5" class="" data-old_color="#D8DCE5"/><path style="fill:#646463" d="M27.588,254.751c2.479-24.129,10.747-60.322,36.565-90.381L52.33,149.15  c-32.314,31.502-42.018,72.587-44.743,99.101c-0.523,5.095,2.767,9.801,7.741,11.027l15.156,3.737  C28.4,260.894,27.265,257.898,27.588,254.751z" data-original="#C3C8D1" class="" data-old_color="#C3C8D1"/><path style="fill:#646463" d="M52.33,149.149c-25.751,25.104-37.136,56.287-42.081,81.338c53.147-9.021,67.36-48.797,67.36-48.797  l0,0L52.33,149.149z" data-original="#E4EAF8" class="" data-old_color="#E4EAF8"/><path style="fill:#646463" d="M52.33,149.149c-22.523,21.957-36.012,50.602-42.081,81.338c8.704-1.477,16.356-3.783,23.081-6.599  c5.277-19.244,14.571-40.596,30.824-59.518L52.33,149.149z" data-original="#D8DCE5" class="" data-old_color="#D8DCE5"/><path style="fill:#646463" d="M350.885,184.769l-2-92.147l-40.684-5.249c0,0-2.655,37.175-44.898,56.688  c-4.612,2.13-9.927,2.13-14.538,0c-42.243-19.512-44.898-56.688-44.898-56.688l-40.684,5.249l-2,92.147l-17.029,34.122v117.246  c3.199,0,220.562,0,223.761,0V218.891L350.885,184.769z" data-original="#E4EAF8" class="" data-old_color="#E4EAF8"/><path style="fill:#646463" d="M163.183,92.621l-2,92.147l-17.03,34.122v23.002v94.244h19.765V227.513l17.943-32.174  c0.867-1.554,1.322-3.305,1.322-5.084V90.04L163.183,92.621z" data-original="#D8DCE5" class="" data-old_color="#D8DCE5"/><path style="fill:#7C5215" d="M380.418,351.297l-12.503-15.16c-3.199,0-220.562,0-223.761,0l-12.503,15.16  c-2.47,2.034-3.901,5.066-3.901,8.267v42.948c0,2.851,1.249,5.558,3.418,7.408l10.714,14.176c1.467,1.251,3.331,1.938,5.258,1.938  c3.112,0,214.676,0,217.787,0c1.927,0,3.792-0.687,5.258-1.938l10.714-14.176c2.169-1.85,3.418-4.558,3.418-7.408v-42.948  C384.319,356.363,382.888,353.331,380.418,351.297z" data-original="#707487" class="" data-old_color="#707487"/><path style="fill:#7C5215" d="M151.168,409.921c-2.169-1.85-3.418-4.558-3.418-7.408v-42.948c0-3.2,1.431-6.232,3.901-8.267  l12.503-15.16h-20.001l-12.503,15.16c-2.47,2.034-3.901,5.066-3.901,8.267v42.948c0,2.851,1.249,5.558,3.418,7.408l10.714,14.176  c1.467,1.251,3.331,1.938,5.259,1.938h20.001c-1.927,0-3.792-0.687-5.259-1.938L151.168,409.921z" data-original="#5E6377" class="" data-old_color="#5E6377"/><path style="fill:#646463" d="M431.425,265.505c-6.182-31.051-24.14-48.837-24.14-48.837l52.451-67.517  c32.313,31.502,42.018,72.587,44.743,99.101c0.524,5.095-2.767,9.801-7.741,11.027l-54.087,13.338  C437.569,273.869,432.447,270.639,431.425,265.505z" data-original="#D8DCE5" class="" data-old_color="#D8DCE5"/><path style="fill:#646463" d="M421.271,198.663l-13.986,18.003c0,0,17.956,17.786,24.14,48.837  c1.022,5.134,6.145,8.365,11.229,7.11l12.109-2.986C450.255,247.744,440.796,221.451,421.271,198.663z" data-original="#C3C8D1" class="" data-old_color="#C3C8D1"/><path style="fill:#646463" d="M459.737,149.149c25.751,25.104,37.136,56.287,42.081,81.338  c-53.147-9.021-67.36-48.797-67.36-48.797l0,0L459.737,149.149z" data-original="#E4EAF8" class="" data-old_color="#E4EAF8"/><path style="fill:#7C5215" d="M127.748,381.086v21.426c0,2.851,1.249,5.558,3.418,7.408l10.714,14.176  c1.467,1.251,3.331,1.938,5.258,1.938c3.112,0,214.676,0,217.787,0c1.927,0,3.792-0.687,5.258-1.938l10.714-14.176  c2.169-1.85,3.418-4.558,3.418-7.408v-21.426H127.748z" data-original="#5E6377" class="" data-old_color="#5E6377"/><path style="fill:#7C5215" d="M130.434,409.223c3.13,3.288,10.543,14.399,12.403,15.566c1.284,0.805,2.771,1.245,4.302,1.245  h20.001c-1.927,0-3.792-0.687-5.259-1.938l-10.714-14.176c-2.169-1.85-3.418-4.558-3.418-7.408v-21.426h-20.001v21.426  C127.748,405.113,128.852,407.574,130.434,409.223z" data-original="#505668" class="active-path" data-old_color="#505668"/><path style="fill:#7C5215" d="M350.885,187.769l-2-71.254l-53.947,83.314c-1.837,2.836-2.814,6.143-2.814,9.523v79.424  c0,5.662,4.59,10.253,10.253,10.253h65.537v-77.136L350.885,187.769z" data-original="#F9B428" class="" data-old_color="#F9B428"/><path style="fill:#7C5215" d="M312.125,288.774V209.35c0-3.379,0.977-6.686,2.813-9.523l34.776-53.708l-0.831-29.606  l-53.947,83.314c-1.836,2.836-2.813,6.143-2.813,9.523v79.424c0,5.662,4.59,10.253,10.253,10.253h20.001  C316.715,299.027,312.125,294.437,312.125,288.774z" data-original="#ED9D0F" class="" data-old_color="#ED9D0F"/><path style="fill:#7C5215" d="M163.183,116.515l-2,71.254l-17.029,34.122v77.136h66.193c5.3,0,9.597-4.296,9.597-9.597v-80.08  c0-3.379-0.977-6.686-2.814-9.523L163.183,116.515z" data-original="#F9B428" class="" data-old_color="#F9B428"/><path style="fill:#7C5215" d="M163.183,116.515l-2,71.254l-17.03,34.122v77.136h19.765V233.38c0-3.847,0.983-7.63,2.857-10.99  l15.086-27.051c0.867-1.555,1.322-3.305,1.322-5.085v-42.851L163.183,116.515z" data-original="#ED9D0F" class="" data-old_color="#ED9D0F"/><path style="fill:#7C5215" d="M137.464,94.203c0.076,0.492,0.128,0.989,0.128,1.494v68.509c0,17.804-21.747,24.778-31.91,11.86  l-41.251-52.306c-0.06-0.077-0.11-0.159-0.168-0.237c-4.035,3.273-7.325,6.401-9.93,9.139c-4.928,5.181-5.359,13.17-0.972,18.816  l51.063,65.73c2.295,2.955,5.827,4.683,9.57,4.683h30.159l19.029-34.122V92.621C153.978,92.621,145.425,93.195,137.464,94.203z" data-original="#707487" class="" data-old_color="#707487"/><path style="fill:#7C5215" d="M124.426,217.207l-51.063-65.73c-3.903-5.025-3.982-11.899-0.482-17.004l-8.45-10.714  c-0.06-0.077-0.11-0.159-0.168-0.237c-4.036,3.273-7.325,6.401-9.93,9.139c-4.928,5.181-5.359,13.17-0.972,18.816l51.063,65.73  c2.295,2.955,5.828,4.683,9.57,4.683h20.001C130.253,221.891,126.721,220.162,124.426,217.207z" data-original="#5E6377" class="" data-old_color="#5E6377"/><path style="fill:#7C5215" d="M374.604,94.203c-0.076,0.492-0.128,0.989-0.128,1.494v68.509c0,7.492,4.396,14.446,11.364,17.197  c7.241,2.859,15.256,0.865,20.301-5.038c0.084-0.098,0.165-0.198,0.245-0.299l41.251-52.305c0.06-0.077,0.11-0.159,0.168-0.237  c4.035,3.273,7.326,6.401,9.93,9.139c4.928,5.181,5.359,13.17,0.972,18.816l-50.896,65.515c-2.401,3.09-6.095,4.898-10.009,4.898  h-29.887l-17.775-31.872c-0.823-1.475-1.255-3.136-1.255-4.825V92.621C358.089,92.621,366.642,93.195,374.604,94.203z" data-original="#707487" class="" data-old_color="#707487"/><path style="fill:#7C5215" d="M368.886,185.193V93.567c-6.304-0.608-12.961-0.946-20.001-0.946v92.571  c0,1.689,0.432,3.35,1.255,4.825l17.775,31.872h20.001l-17.775-31.872C369.318,188.543,368.886,186.882,368.886,185.193z" data-original="#5E6377" class="" data-old_color="#5E6377"/><g>
	<path style="fill:#646463" d="M134.374,87.755c-2.358-1.968-5.448-2.783-8.479-2.235c-22.561,4.108-42.599,12.047-59.558,23.595   c-4.95,3.37-6.01,10.249-2.299,14.954l41.252,52.307c10.581,13.366,32.802,5.873,32.802-11.698V95.696   C138.092,92.619,136.736,89.725,134.374,87.755z" data-original="#E4EAF8" class="" data-old_color="#E4EAF8"/>
	<path style="fill:#646463" d="M450.131,116.091c-0.435-2.824-2.039-5.367-4.401-6.977c-16.959-11.548-36.997-19.485-59.559-23.595   c-3.029-0.548-6.119,0.267-8.478,2.235c-2.362,1.97-3.717,4.864-3.717,7.941v68.982c0,7.828,4.744,14.636,12.088,17.345   c7.547,2.785,15.531,0.431,20.456-5.332c0.088-0.103,0.174-0.209,0.259-0.315l41.251-52.306   C449.8,121.822,450.566,118.915,450.131,116.091z" data-original="#E4EAF8" class="" data-old_color="#E4EAF8"/>
</g><g>
	<path style="fill:#646463" d="M125.132,176.689c-0.087-0.103-0.173-0.208-0.256-0.313l-41.252-52.307   c-3.708-4.701-2.654-11.582,2.299-14.954c14.156-9.639,30.464-16.752,48.585-21.233c-0.047-0.04-0.087-0.086-0.135-0.125   c-2.358-1.968-5.448-2.783-8.479-2.235c-22.561,4.108-42.599,12.047-59.558,23.595c-4.95,3.37-6.01,10.249-2.299,14.954   l41.252,52.307c5.419,6.845,15.684,9.186,24.106,3.983C127.821,179.367,126.375,178.144,125.132,176.689z" data-original="#D8DCE5" class="" data-old_color="#D8DCE5"/>
	<path style="fill:#646463" d="M393.716,164.677V95.696c0-3,1.296-5.82,3.55-7.786c-3.628-0.9-7.323-1.704-11.096-2.391   c-3.029-0.548-6.119,0.267-8.478,2.235c-2.362,1.97-3.717,4.864-3.717,7.941v68.982c0,7.828,4.744,14.636,12.088,17.345   c5.506,2.032,11.401,1.384,16.267-1.713C397.004,176.98,393.716,171.186,393.716,164.677z" data-original="#D8DCE5" class="" data-old_color="#D8DCE5"/>
</g><path d="M468.456,148.396c1.961-7.198,0.154-15.094-5.318-20.847c-1.981-2.083-4.113-4.125-6.345-6.12  c0.454-2.069,0.553-4.219,0.226-6.345c-0.729-4.736-3.42-9-7.382-11.697c-17.772-12.102-38.714-20.409-62.25-24.696  c-5.072-0.917-10.253,0.445-14.208,3.746c-1.313,1.094-2.42,2.371-3.34,3.76c-6.673-0.651-13.52-0.992-20.437-1.009l-40.273-5.196  c-0.134-0.017-0.843-0.062-0.96-0.062H203.834c-0.134,0-0.836,0.046-0.96,0.062l-40.272,5.196  c-6.918,0.017-13.765,0.358-20.438,1.009c-0.92-1.389-2.027-2.665-3.339-3.76c-3.954-3.301-9.136-4.668-14.216-3.746  c-23.529,4.285-44.471,12.594-62.245,24.695c-3.961,2.698-6.651,6.962-7.38,11.699c-0.327,2.126-0.227,4.275,0.227,6.343  c-2.234,1.997-4.366,4.04-6.345,6.121c-5.471,5.752-7.279,13.649-5.318,20.847C17.705,175.364,3.942,211.091,0.092,248.541  c-0.9,8.771,4.862,16.971,13.405,19.076l54.088,13.339c9.262,2.281,18.53-3.65,20.379-12.929  c3.681-18.484,11.941-31.984,17.244-39.142c0.886,0.36,1.839,0.563,2.821,0.563h28.59c0,10.487,0,94.023,0,104.051l-10.39,12.598  c-3.833,3.452-6.016,8.336-6.016,13.523c0,4.557,0,38.401,0,42.948c0,4.743,1.942,9.245,5.359,12.492l10.29,13.615  c1.673,2.21,6.038,4.916,11.243,4.916h217.79c5.01,0,9.464-2.565,11.243-4.916l10.29-13.615c3.311-3.145,5.358-7.605,5.358-12.492  c0-4.547,0-38.391,0-42.948c0-5.188-2.183-10.072-6.016-13.523L375.381,333.5v-56.529c0-4.143-3.357-7.5-7.5-7.5s-7.5,3.357-7.5,7.5  v14.612h-58.037c-1.518,0-2.752-1.234-2.752-2.752v-79.423c0-1.937,0.557-3.82,1.609-5.446l40.15-62.006v45.87  c0,1.278,0.327,2.536,0.95,3.653l18.079,32.419v18.07c0,4.143,3.357,7.5,7.5,7.5s7.5-3.357,7.5-7.5v-12.521h28.59  c0.981,0,1.933-0.202,2.819-0.562c5.308,7.163,13.566,20.661,17.246,39.141c1.847,9.28,11.121,15.209,20.379,12.929l54.086-13.339  c8.544-2.105,14.308-10.307,13.407-19.076C508.079,211.278,494.454,175.594,468.456,148.396z M298.992,94.931  c-5.766,19.4-20.422,33.858-38.869,42.378c-2.619,1.211-5.626,1.211-8.246,0c-18.391-8.496-33.107-23.043-38.872-42.378  C213.007,94.931,298.992,94.931,298.992,94.931z M169.701,191.48c0.623-1.117,0.95-2.375,0.95-3.653v-45.87l40.15,62.006  c1.053,1.626,1.609,3.51,1.609,5.446v80.079c0,1.155-0.94,2.096-2.097,2.096h-58.691v-67.686L169.701,191.48z M70.807,115.784  c16.03-10.914,35.036-18.429,56.483-22.334c1.486-0.267,2.768,0.89,2.768,2.304v68.982c0,4.44-2.691,8.303-6.856,9.84  c-4.097,1.512-8.612,0.478-11.614-3.035l-41.18-52.214C69.35,117.794,69.806,116.467,70.807,115.784z M51.694,161.656  c13.303,17.123,10.679,13.746,17.202,22.143c-4.255,8.373-17.538,28.898-48.698,37.813C26.605,197.4,37.51,177.426,51.694,161.656z   M73.254,265.098c-0.187,0.937-1.133,1.526-2.076,1.293l-54.088-13.339c-1.345-0.331-2.217-1.584-2.073-2.978  c0.394-3.831,0.929-7.894,1.64-12.126c35.627-7.614,53.896-28.281,62.169-41.367l16.221,20.88  C88.869,225.217,77.931,241.612,73.254,265.098z M111.702,214.448l-1.027-1.322l-0.002-0.003L59.249,146.93  c-2.112-2.723-1.909-6.525,0.487-9.044c1.107-1.165,2.268-2.32,3.476-3.461l36.568,46.368c0.139,0.175,0.28,0.349,0.41,0.5  c15.339,17.951,44.868,7.147,44.868-16.559v-63.755c3.483-0.313,7.021-0.535,10.591-0.665v16.258v69.304l-15.935,28.572  L111.702,214.448L111.702,214.448z M364.346,343.694l10.253,12.433c0.912,1.11,2.188,1.604,2.188,3.494v14.022H273.503  c-4.143,0-7.501,3.357-7.501,7.501s3.357,7.5,7.501,7.5h103.283v13.926c0,1.403-0.927,1.598-1.901,2.886l-9.926,13.134  c-0.021,0.002-0.042,0.003-0.063,0.003H147.107c-0.021,0-0.043-0.001-0.063-0.003l-9.926-13.134  c-0.876-1.157-1.902-1.506-1.902-2.886v-13.926H238.5c4.143,0,7.501-3.357,7.501-7.5s-3.357-7.501-7.501-7.501H135.216v-14.022  c0-1.88,1.257-2.365,2.188-3.494l10.254-12.433H364.346z M341.352,114.356l-52.742,81.453c-2.628,4.061-4.018,8.764-4.018,13.6  v79.423c0,9.789,7.965,17.753,17.753,17.753h58.037v22.107h-208.76v-22.107h58.692c9.428,0,17.098-7.669,17.098-17.097v-80.079  c0-4.836-1.39-9.539-4.018-13.6l-52.743-81.453V99.275l27.07-3.493c5.554,22.547,21.747,43.033,47.723,55.077  c0.048,0.022,0.093,0.046,0.141,0.068c6.622,3.06,14.214,3.06,20.83,0c0.024-0.011,0.047-0.023,0.071-0.034  c26.198-12.122,42.371-32.811,47.794-55.111l27.071,3.493v15.081H341.352z M460.309,161.656  c15.539,17.274,25.653,37.879,31.496,59.956c-31.182-8.919-44.46-29.464-48.7-37.811  C453.716,170.144,451.057,173.566,460.309,161.656z M381.945,95.754c0-1.454,1.32-2.567,2.761-2.305  c21.454,3.906,40.46,11.422,56.488,22.335c1,0.679,1.466,2.003,0.398,3.544l-41.106,52.122l-0.079,0.097  c-6.374,7.458-18.463,2.866-18.463-6.813V95.754H381.945z M400.301,214.448h-28.014l-15.935-28.572v-69.304v-16.258  c3.569,0.13,7.105,0.352,10.591,0.665v63.755c0,10.792,6.541,20.178,16.662,23.912c10.835,4.002,22.236,0.175,28.638-7.88  l36.547-46.342c1.207,1.141,2.368,2.296,3.477,3.462c2.396,2.519,2.599,6.322,0.483,9.046  C438.591,165.16,413.194,197.85,400.301,214.448z M494.911,253.052l-54.086,13.339c-0.945,0.234-1.89-0.357-2.076-1.292v-0.001  c-4.676-23.487-15.616-39.88-21.793-47.636l16.221-20.88c8.273,13.086,26.542,33.753,62.169,41.368  c0.711,4.232,1.246,8.296,1.64,12.126C497.129,251.468,496.257,252.721,494.911,253.052z" data-original="#000000" class="" data-old_color="#000000" style="fill:#000000"/></g> </svg>
