<?xml version="1.0"?>
<svg xmlns="http://www.w3.org/2000/svg" id="Layer_3" enable-background="new 0 0 64 64" height="512px" viewBox="0 0 64 64" width="512px" class=""><g><path d="m14.63 21c1.735-6.732 6.888-11.977 13.37-13.529h8c6.482 1.552 11.635 6.797 13.37 13.529" fill="#b8b9b3" data-original="#B8B9B3" class="active-path" data-old_color="#b8b9b3" style="fill:#646463"/><path d="m32 42 3-3-1-8 2-3h10l-.035.106c-1.258 3.774-3.964 6.894-7.522 8.673l-.443.221-2 20 2 5h2l.24-.2c3.701-3.084 6.092-7.459 6.69-12.24l.07-.56-.992-1.488c-.657-.986-1.008-2.144-1.008-3.329v-.101c0-2.933 2.12-5.436 5.014-5.918l.986-.164.165-.825c.555-2.776.835-5.601.835-8.433v-.183c0-2.368-.196-4.733-.585-7.069l-.415-2.49-.516.774c-.927 1.39-2.488 2.226-4.16 2.226h-.396c-.614 0-1.222-.113-1.795-.333l-12.133-4.667-12.133 4.667c-.573.22-1.182.333-1.795.333h-.396c-1.672 0-3.233-.836-4.16-2.226l-.516-.774-.415 2.49c-.389 2.336-.585 4.7-.585 7.069v.183c0 2.832.28 5.656.835 8.433l.165.825.986.164c2.894.483 5.014 2.986 5.014 5.919v.101c0 1.185-.351 2.343-1.008 3.328l-.992 1.488.07.56c.598 4.78 2.989 9.155 6.69 12.24l.24.2h2l2-5-2-20-.443-.221c-3.558-1.779-6.264-4.899-7.522-8.673l-.035-.106h10l2 3-1 8z" fill="#4d5d7a" data-original="#4D5D7A" class="" data-old_color="#4d5d7a" style="fill:#825616"/><path d="m26 37-.443-.221c-3.558-1.779-6.264-4.899-7.522-8.673l-.035-.106h10l2 3-1 8 3 3 3-3-1-8 2-3h9.551c.29-1.783.449-3.62.449-5.5 0-.168-.009-.333-.011-.5h-.061c-.614 0-1.222-.113-1.795-.333l-12.133-4.667-12.133 4.667c-.573.22-1.182.333-1.795.333h-.396c-1.672 0-3.233-.836-4.16-2.227l-.516-.773-.415 2.49c-.389 2.336-.585 4.7-.585 7.069v.183c0 2.832.28 5.656.835 8.433l.165.825.986.164c2.894.483 5.014 2.986 5.014 5.919v.101c0 1.185-.351 2.343-1.008 3.328l-.992 1.488.07.56c.095.756.25 1.497.432 2.23.984.134 1.983.21 2.998.21 2.389 0 4.698-.388 6.89-1.099z" fill="#8892a0" data-original="#8892A0" class="" data-old_color="#8892a0" style="fill:#825616"/><path d="m38.443 36.779-.443.221-.776 7.759c3.806-3.83 6.623-8.94 7.941-14.755-1.44 2.912-3.783 5.305-6.722 6.775z" fill="#8892a0" data-original="#8892A0" class="" data-old_color="#8892a0" style="fill:#825616"/><path d="m35 14h-6l-2-12h10z" fill="#4d5d7a" data-original="#4D5D7A" class="" data-old_color="#4d5d7a" style="fill:#825616"/><path d="m40 63h-2c-.409 0-.776-.249-.929-.628l-2-5c-.06-.149-.082-.311-.066-.471l2-20c.034-.341.241-.642.548-.795l.442-.221c2.956-1.478 5.247-3.895 6.556-6.884h-8.016l-1.497 2.245.954 7.631c.038.306-.066.613-.285.831l-3 3c-.391.391-1.023.391-1.414 0l-3-3c-.219-.218-.323-.525-.285-.831l.954-7.631-1.497-2.246h-8.016c1.309 2.99 3.6 5.406 6.556 6.884l.442.221c.307.153.514.454.548.795l2 20c.016.16-.007.322-.066.471l-2 5c-.153.38-.52.629-.929.629h-2c-.234 0-.461-.082-.641-.232l-.24-.2c-3.909-3.257-6.41-7.833-7.041-12.884l-.07-.56c-.03-.238.027-.479.16-.679l.992-1.488c.55-.824.84-1.783.84-2.774v-.101c0-2.454-1.757-4.528-4.178-4.932l-.987-.165c-.409-.068-.734-.383-.815-.79l-.165-.825c-.568-2.832-.855-5.735-.855-8.628v-.184c0-2.418.201-4.852.599-7.233l.415-2.49c.067-.405.375-.727.776-.813.404-.088.814.082 1.042.423l.516.773c.744 1.116 1.988 1.782 3.328 1.782h.396c.494 0 .977-.09 1.436-.267l12.134-4.667c.232-.089.486-.089.719 0l12.134 4.667c.457.177.94.267 1.434.267h.396c1.34 0 2.584-.666 3.328-1.781l.516-.773c.228-.341.637-.511 1.042-.423.401.086.709.408.776.813l.415 2.49c.397 2.381.598 4.814.598 7.233v.184c0 2.893-.287 5.796-.854 8.629l-.165.825c-.081.407-.406.722-.815.79l-.986.165c-2.423.402-4.18 2.476-4.18 4.931v.101c0 .991.29 1.95.84 2.774l.992 1.488c.133.2.19.441.16.679l-.07.56c-.631 5.05-3.132 9.626-7.041 12.883l-.24.2c-.18.15-.407.232-.641.232zm-1.323-2h.961c3.497-2.93 5.733-7.035 6.3-11.564l.023-.191-.785-1.179c-.77-1.153-1.176-2.496-1.176-3.883v-.101c0-3.436 2.46-6.34 5.85-6.904l.306-.051.029-.148c.541-2.704.815-5.476.815-8.237v-.184c0-2.309-.192-4.631-.571-6.904l-.04-.24c-1.095 1.01-2.538 1.586-4.065 1.586h-.396c-.741 0-1.466-.135-2.154-.4l-11.774-4.529-11.774 4.529c-.688.265-1.413.4-2.154.4h-.396c-1.526 0-2.97-.576-4.064-1.585l-.04.24c-.38 2.272-.572 4.595-.572 6.904v.184c0 2.761.274 5.533.815 8.237l.029.148.307.051c3.389.564 5.849 3.467 5.849 6.904v.101c0 1.387-.406 2.729-1.176 3.883l-.785 1.179.023.19c.566 4.53 2.803 8.635 6.3 11.564h.961l1.657-4.144-1.92-19.208c-3.798-1.916-6.628-5.19-7.973-9.227l-.035-.105c-.103-.305-.051-.64.137-.901s.49-.415.811-.415h10c.334 0 .646.167.832.445l2 3c.133.2.19.44.16.679l-.939 7.515 1.947 1.947 1.947-1.947-.939-7.515c-.03-.238.027-.479.16-.679l2-3c.186-.278.498-.445.832-.445h10c.321 0 .623.154.812.416.188.261.239.596.137.901l-.035.105c-1.345 4.036-4.175 7.311-7.973 9.226l-1.921 19.208z" data-original="#000000" class="" style="fill:#000000" data-old_color="#000000"/><path d="m48.401 21.25c-1.657-6.43-6.498-11.336-12.635-12.806l.467-1.945c6.857 1.643 12.263 7.104 14.105 14.252z" data-original="#000000" class="" style="fill:#000000" data-old_color="#000000"/><path d="m15.599 21.25-1.938-.499c1.843-7.148 7.248-12.61 14.105-14.252l.467 1.945c-6.136 1.469-10.977 6.376-12.634 12.806z" data-original="#000000" class="" style="fill:#000000" data-old_color="#000000"/><path d="m35 15h-6c-.489 0-.906-.354-.986-.835l-2-12c-.049-.29.033-.586.224-.811.189-.225.468-.354.762-.354h10c.294 0 .573.129.763.354s.272.521.224.811l-2 12c-.081.481-.498.835-.987.835zm-5.153-2h4.307l1.666-10h-7.639z" data-original="#000000" class="" style="fill:#000000" data-old_color="#000000"/><path d="m31 2h2v9h-2z" data-original="#000000" class="" style="fill:#000000" data-old_color="#000000"/><path d="m18.964 54.5h7.071v2h-7.071z" transform="matrix(.707 -.707 .707 .707 -32.654 32.166)" data-original="#000000" class="" style="fill:#000000" data-old_color="#000000"/><path d="m16.964 50.5h7.071v2h-7.071z" transform="matrix(.707 -.707 .707 .707 -30.412 29.58)" data-original="#000000" class="" style="fill:#000000" data-old_color="#000000"/><path d="m40.5 51.964h2v7.071h-2z" transform="matrix(.707 -.707 .707 .707 -27.089 45.601)" data-original="#000000" class="" style="fill:#000000" data-old_color="#000000"/><path d="m42.5 47.964h2v7.071h-2z" transform="matrix(.707 -.707 .707 .707 -23.675 45.843)" data-original="#000000" class="" style="fill:#000000" data-old_color="#000000"/></g> </svg>
